<svg width="14" height="12" viewBox="0 0 14 12" fill="none" xmlns="http://www.w3.org/2000/svg">
<path fill-rule="evenodd" clip-rule="evenodd" d="M9.09139 9.45053C8.97536 9.56629 8.82321 9.62425 8.67123 9.62425C8.51924 9.62425 8.3671 9.56629 8.25111 9.45053L6.85713 8.05871L5.46313 9.45053C5.34717 9.56629 5.19509 9.62425 5.04307 9.62425C4.89097 9.62425 4.73891 9.56629 4.62289 9.45048C4.39092 9.21881 4.39092 8.84321 4.623 8.61153L6.01696 7.21986L4.67254 5.87763C4.4406 5.64595 4.4406 5.2704 4.67254 5.03866C4.90465 4.80715 5.28076 4.80715 5.51286 5.03866L6.85721 6.38096L8.20159 5.03866C8.43365 4.80715 8.8099 4.80715 9.04187 5.03866C9.27388 5.2704 9.27388 5.64602 9.0418 5.87763L7.69743 7.21986L9.09139 8.61153C9.32335 8.84328 9.32335 9.21881 9.09139 9.45053ZM13.1602 9.61874L13.1604 9.61867L8.10484 0.965517L8.10468 0.965604C7.85414 0.537677 7.38944 0.25 6.85715 0.25C6.32486 0.25 5.86015 0.537677 5.6096 0.965604L5.60946 0.965517L0.566326 9.59739C0.566153 9.59767 0.565979 9.59796 0.565789 9.59831L0.553915 9.61867L0.554037 9.61874C0.429081 9.83212 0.357147 10.0802 0.357147 10.3453C0.357147 11.1418 1.00384 11.7875 1.8016 11.7875H11.9127C12.7104 11.7875 13.3571 11.1418 13.3571 10.3453C13.3571 10.0802 13.2852 9.83212 13.1602 9.61874Z" fill="#E70002"/>
</svg>
