<svg width="20" height="6" viewBox="0 0 20 6" fill="none" xmlns="http://www.w3.org/2000/svg">
<path fill-rule="evenodd" clip-rule="evenodd" d="M12.4375 3.1875C12.4375 4.53369 11.3462 5.625 10 5.625C8.65381 5.625 7.5625 4.53369 7.5625 3.1875C7.5625 1.84131 8.65381 0.75 10 0.75C11.3462 0.75 12.4375 1.84131 12.4375 3.1875ZM5.125 3.1875C5.125 4.53369 4.03369 5.625 2.6875 5.625C1.34131 5.625 0.25 4.53369 0.25 3.1875C0.25 1.84131 1.34131 0.75 2.6875 0.75C3.33397 0.75 3.95395 1.00681 4.41107 1.46393C4.86819 1.92105 5.125 2.54103 5.125 3.1875ZM19.75 3.1875C19.75 4.53369 18.6587 5.625 17.3125 5.625C15.9663 5.625 14.875 4.53369 14.875 3.1875C14.875 1.84131 15.9663 0.75 17.3125 0.75C18.6587 0.75 19.75 1.84131 19.75 3.1875Z" fill="black"/>
</svg>
