<svg width="20" height="21" viewBox="0 0 20 21" fill="none" xmlns="http://www.w3.org/2000/svg">
<path fill-rule="evenodd" clip-rule="evenodd" d="M8.30135 2.40468C7.96643 2.49634 7.69682 2.76802 7.6089 3.10445C7.58984 3.17325 7.58019 3.30909 7.58019 3.5079V3.81005H6.31752C4.93618 3.81005 4.89603 3.81208 4.63201 3.92279C4.23586 4.0891 3.92406 4.44279 3.79981 4.87087C3.77312 4.96634 3.76525 5.09076 3.75966 5.59146L3.75 6.19931H16.1912L16.1891 5.6392C16.1871 5.16515 16.1815 5.058 16.1508 4.928C16.0494 4.49408 15.7777 4.15003 15.3836 3.95884C15.3724 3.95329 15.3617 3.94796 15.3514 3.94285C15.3051 3.91981 15.2675 3.90113 15.2286 3.88593C15.0613 3.82062 14.8688 3.81989 13.8486 3.816C13.7974 3.81581 13.744 3.8156 13.6885 3.81538L12.3625 3.80777V3.50765C12.3625 3.30884 12.3529 3.173 12.3338 3.10419C12.2439 2.76396 11.9742 2.49431 11.6335 2.40443C11.4861 2.36431 8.44035 2.36609 8.30084 2.40443L8.30135 2.40468ZM11.4065 3.57089V3.80982H8.53688V3.33197H11.4065V3.57089ZM4.71056 12.6511V12.6514V18.625H15.233V6.67744H4.71056V12.6511ZM7.32383 8.17024C7.42903 8.22381 7.53042 8.34416 7.56116 8.45131C7.57463 8.49905 7.58022 9.86583 7.58022 12.653C7.58022 16.3003 7.57641 16.7954 7.55151 16.8681C7.51136 16.9828 7.44427 17.0631 7.33729 17.126C7.25877 17.1738 7.22625 17.1814 7.10199 17.1814C6.97951 17.1814 6.9452 17.1738 6.86846 17.1278C6.81866 17.0991 6.75564 17.0476 6.73074 17.013C6.72381 17.0041 6.71733 16.9967 6.71126 16.9898L6.71124 16.9898C6.70706 16.985 6.70308 16.9805 6.69929 16.9758C6.62306 16.8818 6.62307 16.726 6.62345 13.4432V13.4431V13.4431L6.6235 12.6527L6.62334 11.6384C6.62256 8.56687 6.62252 8.3813 6.71479 8.29805C6.72071 8.29271 6.72701 8.28779 6.73372 8.28255L6.73375 8.28252L6.73377 8.28252C6.74391 8.27459 6.75499 8.26595 6.76707 8.25403C6.91446 8.10676 7.13629 8.07248 7.32383 8.16998V8.17024ZM10.4174 8.42646C10.3772 8.30611 10.2547 8.18373 10.1343 8.14361V8.14387C9.9084 8.06744 9.68656 8.14767 9.56027 8.35029L9.50284 8.44195L9.49699 12.6111L9.49607 13.5762C9.49283 16.7334 9.49265 16.9106 9.58106 16.995C9.58632 17 9.59188 17.0047 9.59778 17.0097L9.59779 17.0097L9.5978 17.0097C9.60678 17.0172 9.61652 17.0254 9.6271 17.0364C9.74195 17.155 9.80701 17.1817 9.97141 17.1817C10.0939 17.1817 10.1302 17.172 10.2049 17.1281C10.2547 17.0994 10.3178 17.0479 10.3427 17.0133C10.3496 17.0043 10.3561 16.997 10.3622 16.9901C10.3663 16.9853 10.3703 16.9808 10.3741 16.9761C10.4503 16.8822 10.4503 16.7264 10.45 13.4434L10.4499 12.653C10.4499 8.85455 10.4479 8.51254 10.4174 8.42646ZM13.0786 8.17604C13.1782 8.23342 13.2547 8.32711 13.2928 8.4302C13.3139 8.48936 13.3177 9.23508 13.3195 12.6435C13.3195 12.9785 13.3196 13.2873 13.3196 13.5719C13.3202 16.7381 13.3203 16.9179 13.2308 16.9997C13.2254 17.0046 13.2196 17.0092 13.2136 17.014C13.2044 17.0214 13.1944 17.0294 13.1836 17.0402C13.0707 17.1529 13.0057 17.1798 12.841 17.1798C12.7168 17.1819 12.6842 17.174 12.6057 17.1283C12.4985 17.0653 12.4164 16.9582 12.3839 16.8434C12.3666 16.7822 12.3628 15.746 12.3666 12.6131L12.3725 8.46295L12.4202 8.37129C12.4738 8.26618 12.5714 8.17832 12.6804 8.13795C12.7915 8.09581 12.9732 8.11307 13.0784 8.17629L13.0786 8.17604Z" fill="#CCCCCC"/>
</svg>
