<svg width="20" height="21" viewBox="0 0 20 21" fill="none" xmlns="http://www.w3.org/2000/svg">
<path d="M9.92249 2.87986C9.91842 2.88393 9.81883 2.89206 9.70095 2.89815C8.72738 2.95506 7.66235 3.24571 6.72131 3.70709C6.12172 4.0018 5.51604 4.4022 4.99775 4.84529C4.7945 5.02008 4.25182 5.57089 4.08109 5.7782C3.44899 6.54039 2.96322 7.38998 2.65834 8.25785C2.61769 8.37574 2.57704 8.49362 2.56688 8.52208C2.48355 8.75581 2.33721 9.36963 2.28233 9.72125C2.27217 9.79442 2.25794 9.87165 2.25388 9.89604C2.24981 9.92043 2.23965 10.0119 2.23152 10.0993C2.22339 10.1867 2.20916 10.329 2.20103 10.4123C2.17867 10.6521 2.18477 11.392 2.21323 11.6928C2.24981 12.0891 2.25997 12.1602 2.31485 12.4651C2.61566 14.1013 3.37582 15.5484 4.54857 16.7252C4.99165 17.1683 5.32498 17.4468 5.77823 17.7496C5.88392 17.8187 5.9957 17.8939 6.02619 17.9142C6.24773 18.0667 6.89204 18.3919 7.26398 18.5382C7.90015 18.7923 8.37169 18.9203 9.0912 19.0402C9.53022 19.1114 10.4387 19.148 10.9103 19.1094C12.6704 18.9711 14.3046 18.2943 15.6155 17.1622C15.8147 16.9915 16.0423 16.7699 16.0423 16.7496C16.0423 16.7395 15.5606 16.2517 14.9732 15.6643L13.9042 14.5952L13.8188 14.6744C13.6684 14.8208 13.6155 14.8655 13.4509 14.9935C13.0708 15.2923 12.7375 15.4874 12.2212 15.7131C11.9489 15.833 11.4326 15.9712 11.0424 16.0301C10.7599 16.0748 10.0627 16.0891 9.78021 16.0565C8.80258 15.9488 7.84731 15.5525 7.11155 14.9488C6.19489 14.1988 5.55465 13.144 5.33514 12.018C5.25384 11.6054 5.23962 11.4631 5.23962 11.0119C5.23962 10.5322 5.25791 10.3513 5.34531 9.93669C5.55059 8.96719 6.00993 8.12371 6.72131 7.41436C7.21114 6.92453 7.72333 6.57901 8.33918 6.31682C8.68267 6.17048 9.1603 6.03633 9.53835 5.98145C9.62168 5.96926 9.71314 5.953 9.7416 5.9469C9.77005 5.9408 9.98956 5.93471 10.2294 5.93064C10.5749 5.92454 10.7274 5.93267 10.9611 5.96316C12.0282 6.10544 12.9428 6.53226 13.7497 7.26396L13.9082 7.40623L11.8473 9.46719L14.4184 9.47328C16.2618 9.47735 17.022 9.47328 17.1094 9.45702C17.4834 9.38589 17.8025 9.08305 17.9021 8.70297C17.9265 8.61151 17.9326 8.17249 17.9326 5.98552V3.37782L16.9976 4.31481L16.0606 5.25179L15.8635 5.0648C14.9326 4.18879 13.7659 3.53026 12.516 3.17661C11.8046 2.97539 11.1135 2.87986 10.329 2.8758C10.1095 2.87376 9.92655 2.8758 9.92249 2.87986Z" fill="black"/>
</svg>
